<svg xmlns="http://www.w3.org/2000/svg" version="1.1" xmlns:xlink="http://www.w3.org/1999/xlink" xmlns:svgjs="http://svgjs.com/svgjs" width="1960" height="1100" preserveAspectRatio="none" viewBox="0 0 1960 1100"><g mask="url(&quot;#SvgjsMask1148&quot;)" fill="none"><rect width="1960" height="1100" x="0" y="0" fill="rgba(32, 32, 32, 1)"></rect><path d="M0,883.573C160.334,856.932,257.582,700.932,399.161,621.107C552.787,534.489,780.54,549.779,865.817,395.405C950.505,242.098,831.031,57.46,806.305,-115.929C781.544,-289.563,821.738,-481.079,720.411,-624.239C616.286,-771.352,439.313,-864.696,260.477,-887.104C91.727,-908.248,-68.146,-822.567,-217.811,-741.797C-343.924,-673.737,-420.595,-551.513,-530.895,-460.023C-669.124,-345.367,-897.125,-308.564,-947.823,-136.276C-997.697,33.213,-848.748,193.505,-769.698,351.509C-693.51,503.793,-634.674,672.791,-494.603,769.617C-352.554,867.81,-170.348,911.878,0,883.573" fill="#1d1d1d"></path><path d="M1960 1639.74C2065.654 1659.021 2189.648 1653.873 2270.578 1583.269 2350.759 1513.318 2335.04 1387.231 2366.094 1285.4569999999999 2392.366 1199.355 2441.908 1121.099 2439.052 1031.123 2435.996 934.8340000000001 2407.968 839.063 2349.495 762.501 2288.999 683.29 2198.807 637.469 2107.639 597.188 2004.907 551.797 1896.794 486.298 1788.064 514.441 1678.853 542.708 1621.757 657.6469999999999 1547.1480000000001 742.262 1471.83 827.681 1375.146 901.294 1349.185 1012.178 1322.3400000000001 1126.837 1331.617 1261.009 1403.935 1353.9470000000001 1474.132 1444.159 1612.959 1429.562 1714.624 1481.813 1802.923 1527.195 1862.334 1621.917 1960 1639.74" fill="#242424"></path></g><defs><mask id="SvgjsMask1148"><rect width="1960" height="1100" fill="#ffffff"></rect></mask></defs></svg>