<svg xmlns="http://www.w3.org/2000/svg" version="1.1" xmlns:xlink="http://www.w3.org/1999/xlink" xmlns:svgjs="http://svgjs.com/svgjs" width="1960" height="1100" preserveAspectRatio="none" viewBox="0 0 1960 1100"><g mask="url(&quot;#SvgjsMask1029&quot;)" fill="none"><rect width="1960" height="1100" x="0" y="0" fill="rgba(177, 0, 0, 1)"></rect><path d="M0,613.178C138.644,637.748,290.226,711.615,412.826,642.369C535.231,573.233,538.51,400.421,600.274,274.136C664.123,143.587,788.723,32.737,781.986,-112.433C775.124,-260.295,675.474,-391.099,564.839,-489.436C461.618,-581.183,321.287,-604.111,188.029,-640.366C57.502,-675.878,-71.79,-721.141,-205.229,-698.945C-348.863,-675.054,-517.715,-637.554,-589.724,-510.999C-662.424,-383.229,-567.881,-226.758,-557.331,-80.132C-549.387,30.281,-575.342,141.265,-535.366,244.493C-493.907,351.55,-422.958,445.895,-328.406,511.009C-232.034,577.377,-115.219,592.759,0,613.178" fill="#960000"></path><path d="M1960 2039.096C2140.446 2046.674 2333.4049999999997 2012.0810000000001 2470.904 1894.982 2603.247 1782.274 2606.951 1586.547 2677.7870000000003 1427.8020000000001 2747.834 1270.826 2886.257 1138.896 2884.991 967.006 2883.667 787.27 2803.364 605.479 2670.8360000000002 484.057 2543.225 367.14 2359.411 340.83799999999997 2186.862 327.38 2038.613 315.817 1901.037 371.39300000000003 1758.243 412.88 1614.998 454.49800000000005 1462.084 473.225 1349.21 570.747 1227.1860000000001 676.175 1134.888 818.594 1105.2069999999999 977.099 1074.909 1138.897 1119.566 1302.921 1183.717 1454.516 1249.258 1609.396 1341.605 1752.028 1475.95 1853.196 1616.874 1959.319 1783.742 2031.693 1960 2039.096" fill="#cc0000"></path></g><defs><mask id="SvgjsMask1029"><rect width="1960" height="1100" fill="#ffffff"></rect></mask></defs></svg>